<svg width="15" height="44" viewBox="0 0 15 44" fill="none" xmlns="http://www.w3.org/2000/svg">
<g clip-path="url(#clip0_1_290)">
<path d="M12.1835 16.0283H11.163C11.0536 15.2173 10.6572 14.4723 10.0458 13.9284C9.43432 13.3845 8.64823 13.0777 7.82999 13.0635C7.01175 13.0777 6.22565 13.3845 5.6142 13.9284C5.00274 14.4723 4.60639 15.2173 4.49699 16.0283H3.47699C2.91577 16.0287 2.37764 16.2517 1.98073 16.6485C1.58382 17.0452 1.36057 17.5833 1.35999 18.1445V25.86C1.36049 26.4212 1.58359 26.9592 1.98033 27.356C2.37707 27.7528 2.91504 27.9761 3.47619 27.9767H12.1832C12.7444 27.9762 13.2826 27.7531 13.6794 27.3562C14.0763 26.9594 14.2995 26.4213 14.3 25.86V18.1445C14.2994 17.5834 14.0762 17.0454 13.6794 16.6487C13.2826 16.2519 12.7446 16.0288 12.1835 16.0283ZM7.82999 14.1631C8.3574 14.1746 8.8651 14.3657 9.26917 14.7048C9.67323 15.044 9.94946 15.5109 10.0522 16.0283H5.60779C5.71051 15.5109 5.98674 15.044 6.3908 14.7048C6.79487 14.3657 7.30258 14.1746 7.82999 14.1631ZM13.2 25.86C13.1997 26.1296 13.0925 26.388 12.9019 26.5787C12.7114 26.7694 12.453 26.8767 12.1834 26.8771H3.47649C3.20693 26.8767 2.94855 26.7693 2.758 26.5787C2.56745 26.388 2.46028 26.1296 2.45999 25.86V18.1445C2.4603 17.875 2.56751 17.6166 2.75809 17.426C2.94867 17.2354 3.20706 17.1282 3.47659 17.1279H12.1836C12.4531 17.1283 12.7114 17.2355 12.902 17.4261C13.0925 17.6167 13.1997 17.875 13.2 18.1445V25.86Z" fill="white" fill-opacity="0.8"/>
</g>
<defs>
<clipPath id="clip0_1_290">
<rect width="14" height="44" fill="white" transform="translate(0.829956)"/>
</clipPath>
</defs>
</svg>
